<svg xmlns="http://www.w3.org/2000/svg" viewBox="0 0 1200 630" fill="none">
  <defs>
    <linearGradient id="bg" x1="0" y1="0" x2="1200" y2="630">
      <stop offset="0%" stop-color="#0d1117"/>
      <stop offset="100%" stop-color="#161b22"/>
    </linearGradient>
  </defs>
  <style>
    text { font-family: 'SFMono-Regular', Consolas, 'Liberation Mono', Menlo, monospace; }
  </style>

  <rect width="1200" height="630" rx="10" fill="url(#bg)" stroke="#30363d" stroke-width="1"/>
  <rect width="1200" height="38" rx="10" fill="#161b22"/>
  <rect y="28" width="1200" height="10" fill="#161b22"/>
  <circle cx="20" cy="19" r="6" fill="#ff5f56"/>
  <circle cx="40" cy="19" r="6" fill="#ffbd2e"/>
  <circle cx="60" cy="19" r="6" fill="#27c93f"/>

  <!-- Title -->
  <text x="60" y="110" font-size="14" fill="#f97316" font-weight="bold">04</text>
  <text x="60" y="160" font-size="36" fill="#c9d1d9" font-weight="bold">The Library That</text>
  <text x="60" y="205" font-size="36" fill="#c9d1d9" font-weight="bold">Doesn't Lock</text>
  <text x="60" y="250" font-size="36" fill="#c9d1d9" font-weight="bold">You In</text>
  <text x="60" y="305" font-size="16" fill="#8b949e">No OAuth. No API keys.</text>
  <text x="60" y="330" font-size="16" fill="#8b949e">No vendor. Just the protocol.</text>

  <!-- Right side: comparison chart -->
  <rect x="580" y="80" width="560" height="490" rx="8" fill="#161b22" stroke="#30363d" stroke-width="1"/>

  <!-- Header -->
  <text x="620" y="120" font-size="15" fill="#484f58">Dependency comparison</text>

  <!-- Bar chart -->
  <!-- Install size -->
  <text x="620" y="165" font-size="12" fill="#8b949e">Install size</text>

  <rect x="620" y="175" width="280" height="24" rx="4" fill="#f97316" opacity="0.8"/>
  <text x="630" y="192" font-size="11" fill="#0d1117" font-weight="bold">nostr-core  118 MB</text>

  <rect x="620" y="205" width="380" height="24" rx="4" fill="#484f58" opacity="0.6"/>
  <text x="630" y="222" font-size="11" fill="#c9d1d9">@getalby/sdk  159 MB</text>

  <!-- Packages -->
  <text x="620" y="260" font-size="12" fill="#8b949e">Packages installed</text>

  <rect x="620" y="270" width="100" height="24" rx="4" fill="#27c93f" opacity="0.8"/>
  <text x="630" y="287" font-size="11" fill="#0d1117" font-weight="bold">79</text>

  <rect x="620" y="300" width="460" height="24" rx="4" fill="#484f58" opacity="0.6"/>
  <text x="630" y="317" font-size="11" fill="#c9d1d9">436</text>

  <!-- Total deps -->
  <text x="620" y="355" font-size="12" fill="#8b949e">Total dependency tree</text>

  <rect x="620" y="365" width="130" height="24" rx="4" fill="#58a6ff" opacity="0.8"/>
  <text x="630" y="382" font-size="11" fill="#0d1117" font-weight="bold">132</text>

  <rect x="620" y="395" width="500" height="24" rx="4" fill="#484f58" opacity="0.6"/>
  <text x="630" y="412" font-size="11" fill="#c9d1d9">698</text>

  <!-- Key differences -->
  <line x1="620" y1="440" x2="1100" y2="440" stroke="#21262d" stroke-width="1"/>

  <text x="620" y="470" font-size="12" fill="#27c93f">nostr-core</text>
  <text x="620" y="495" font-size="11" fill="#484f58">Pure NIP-47 · Any wallet · Any relay · Any signer</text>

  <text x="620" y="530" font-size="12" fill="#8b949e">@getalby/sdk</text>
  <text x="620" y="555" font-size="11" fill="#484f58">Alby OAuth · Alby webhooks · Alby branding</text>

  <!-- Watermark -->
  <text x="1160" y="600" text-anchor="end" font-size="11" fill="#30363d">nostr-core</text>

  <rect y="626" width="1200" height="4" rx="0" fill="#f97316"/>
</svg>
